<?xml version="1.0" encoding="utf-8"?>
<!-- Generator: Adobe Illustrator 25.4.1, SVG Export Plug-In . SVG Version: 6.00 Build 0)  -->
<svg version="1.1" id="Capa_1" xmlns="http://www.w3.org/2000/svg" xmlns:xlink="http://www.w3.org/1999/xlink" x="0px" y="0px"
	 viewBox="0 0 705.9 216.3" style="enable-background:new 0 0 705.9 216.3;" xml:space="preserve">
<style type="text/css">
	.st0{fill-rule:evenodd;clip-rule:evenodd;fill:#1D1D1B;}
</style>
<g>
	<path class="st0" d="M46.1,138.9c-6.6-1.5-7,2.8-9.5,4.6C42.7,143.1,41.4,139.5,46.1,138.9z"/>
	<path class="st0" d="M82.7,118.6c0.5-3.3,1.2-9.5,3-14.2c-2.1,0.8-2.7,0.7-3.3,1.2c-2,1.2-2.5,3.4-0.3,4c-3.2,4.1-4.6,0.1-5.5-2
		c-1.5,1.7-5,4.2-6.6-0.1c1.9,0.1,3.1-1.6,1.9-2.9c-0.8-0.8-2.1-1.6-2.9-2.6c-0.9,0.9-2.1,1.7-2.9,2.6c-1.2,1.3,0,3,1.9,2.8
		c-1.7,4.4-5.1,1.9-6.7,0.2c-0.9,2.1-2.3,6.1-5.5,2c2.2-0.6,1.7-2.9-0.3-4c-0.6-0.4-1.2-0.4-3.3-1.2c1.8,4.7,2.4,10.8,2.9,14.1
		C63.7,114.6,74,114.8,82.7,118.6z"/>
	<path class="st0" d="M15.9,71.2c0,1.7,1.3,3.1,3,3.1c0.3,0,0.6-0.1,0.9-0.2c0,0,0,0,0,0c14.4-5.5,31.3-8.5,48.5-8.5
		c17.2,0,34.2,3,48.6,8.5c0,0,0,0,0-0.1c0.3,0.1,0.5,0.2,0.8,0.2c1.7,0,3-1.4,3-3.2c0-1.4-0.8-2.5-1.9-2.9c0,0,0,0,0,0
		c-15.7-5.5-33.1-8.4-50.5-8.4c-17.7,0-34.6,2.9-50.4,8.5c0,0,0,0,0,0C16.7,68.7,15.9,69.8,15.9,71.2z"/>
	<path class="st0" d="M167.2,116h-14.4v40h7.9v-14.5h6.5c4.5,0,8-1.2,10.4-3.5c2.4-2.3,3.7-5.4,3.7-9.3c0-3.9-1.2-7.1-3.6-9.4
		C175.4,117.1,171.9,116,167.2,116z M166.4,135h-5.7v-12.5h5.7c2.5,0,4.2,0.5,5.3,1.6c1.1,1.1,1.6,2.6,1.6,4.7
		C173.3,133,171,135,166.4,135z"/>
	<path class="st0" d="M209.3,130.8c-0.8-2.1-2.1-3.9-4-5.1c-1.9-1.3-4.1-1.9-6.7-1.9c-2.6,0-5,0.7-7.1,2c-2.1,1.3-3.7,3.2-4.9,5.7
		c-1.2,2.5-1.8,5.4-1.8,8.7s0.6,6.2,1.8,8.7c1.2,2.5,2.8,4.4,4.9,5.7c2.1,1.3,4.4,2,7.1,2c2.6,0,4.9-0.6,6.7-1.9
		c1.9-1.3,3.2-3,4-5.1v6.7h7.8v-31.9h-7.8V130.8z M207,146.8c-1.5,1.7-3.5,2.5-5.9,2.5c-2.5,0-4.4-0.8-5.9-2.4
		c-1.5-1.6-2.2-3.9-2.2-6.8s0.7-5.1,2.2-6.8c1.5-1.6,3.5-2.5,5.9-2.5c2.4,0,4.4,0.8,5.9,2.5c1.5,1.7,2.3,3.9,2.3,6.8
		C209.3,142.9,208.6,145.1,207,146.8z"/>
	<path class="st0" d="M263.8,123.7c-2.4,0-4.5,0.6-6.5,1.9c-1.9,1.3-3.4,3-4.3,5.2c-0.9-2.3-2.3-4.1-4.2-5.3c-1.8-1.2-4-1.8-6.5-1.8
		c-2.3,0-4.4,0.6-6.2,1.7c-1.8,1.1-3.1,2.7-3.9,4.8v-6h-7.9V156h7.9v-16.9c0-2.7,0.7-4.8,2-6.2c1.3-1.4,3.1-2.1,5.3-2.1
		c2.1,0,3.8,0.7,5,2s1.8,3.2,1.8,5.7V156h7.8v-16.9c0-2.7,0.7-4.8,2-6.2c1.3-1.4,3.1-2.1,5.3-2.1c2.1,0,3.8,0.7,5,2s1.8,3.2,1.8,5.7
		V156h7.8v-18.5c0-4.4-1.1-7.8-3.3-10.2C270.5,124.9,267.6,123.7,263.8,123.7z"/>
	<path class="st0" d="M308.5,125.7c-2.1-1.3-4.4-2-7.1-2c-2.6,0-4.8,0.6-6.7,1.9c-1.8,1.3-3.2,3-3.9,5.1v-6.6h-7.9v47.7h7.9v-22.6
		c0.8,2.1,2.1,3.9,3.9,5.1c1.8,1.3,4.1,1.9,6.7,1.9c2.6,0,5-0.7,7.1-2c2.1-1.3,3.7-3.2,4.9-5.7c1.2-2.5,1.8-5.4,1.8-8.7
		s-0.6-6.2-1.8-8.7C312.3,128.9,310.6,127,308.5,125.7z M305,146.9c-1.5,1.6-3.5,2.4-5.9,2.4c-2.4,0-4.4-0.8-5.9-2.5
		c-1.5-1.7-2.3-3.9-2.3-6.7c0-2.8,0.8-5.1,2.3-6.8c1.5-1.7,3.5-2.5,5.9-2.5c2.5,0,4.4,0.8,5.9,2.5c1.5,1.6,2.2,3.9,2.2,6.8
		S306.4,145.2,305,146.9z"/>
	<rect x="320.8" y="116" class="st0" width="7.9" height="40"/>
	<path class="st0" d="M358.3,125.7c-2.4-1.3-5.1-2-8.1-2c-3,0-5.7,0.7-8.1,2c-2.4,1.3-4.3,3.2-5.7,5.7c-1.4,2.5-2.1,5.4-2.1,8.7
		s0.7,6.2,2.1,8.7s3.3,4.3,5.7,5.7c2.4,1.3,5.1,2,8.1,2c3,0,5.7-0.7,8.1-2c2.4-1.3,4.3-3.2,5.7-5.7c1.4-2.5,2.1-5.3,2.1-8.7
		s-0.7-6.2-2.1-8.7C362.6,128.9,360.7,127,358.3,125.7z M355.8,147c-1.5,1.6-3.4,2.4-5.6,2.4c-2.2,0-4.1-0.8-5.6-2.4
		c-1.5-1.6-2.3-3.9-2.3-6.9s0.8-5.3,2.3-6.9c1.5-1.6,3.4-2.4,5.6-2.4c2.2,0,4.1,0.8,5.6,2.4c1.5,1.6,2.3,3.9,2.3,6.9
		S357.3,145.4,355.8,147z"/>
	<path class="st0" d="M390.2,123.7c-2.5,0-4.6,0.6-6.5,1.8c-1.9,1.2-3.2,2.9-4.1,5v-6.4h-7.9V156h7.9v-16.9c0-2.8,0.7-4.9,2-6.4
		s3.1-2.2,5.4-2.2c2.2,0,3.9,0.7,5.2,2.1c1.3,1.4,1.9,3.4,1.9,5.9V156h7.8v-18.5c0-4.4-1.1-7.8-3.2-10.2
		C396.6,124.9,393.7,123.7,390.2,123.7z"/>
	<path class="st0" d="M431.7,130.8c-0.8-2.1-2.1-3.9-4-5.1c-1.9-1.3-4.1-1.9-6.7-1.9c-2.6,0-5,0.7-7.1,2c-2.1,1.3-3.7,3.2-4.9,5.7
		c-1.2,2.5-1.8,5.4-1.8,8.7s0.6,6.2,1.8,8.7c1.2,2.5,2.8,4.4,4.9,5.7c2.1,1.3,4.4,2,7.1,2c2.6,0,4.9-0.6,6.7-1.9
		c1.9-1.3,3.2-3,4-5.1v6.7h7.8v-31.9h-7.8V130.8z M429.4,146.8c-1.5,1.7-3.5,2.5-5.9,2.5c-2.5,0-4.4-0.8-5.9-2.4
		c-1.5-1.6-2.2-3.9-2.2-6.8s0.7-5.1,2.2-6.8c1.5-1.6,3.5-2.5,5.9-2.5c2.4,0,4.4,0.8,5.9,2.5c1.5,1.7,2.3,3.9,2.3,6.8
		C431.7,142.9,430.9,145.1,429.4,146.8z"/>
	<rect x="487.3" y="75.7" class="st0" width="8.1" height="40.3"/>
	<path class="st0" d="M511,100.7c0-5.5,3-8.3,8.9-8.3h2.4v-8.7c-2.4,0-4.6,0.6-6.6,1.7c-2,1.2-3.5,2.8-4.7,4.8v-6.1h-8.1V116h8.1
		V100.7z"/>
	<path class="st0" d="M545,114.6c1.9-1.2,3.3-2.9,4.2-5v6.4h8.1V84.3h-8.1v16.8c0,2.8-0.7,4.9-2.1,6.4c-1.4,1.5-3.2,2.2-5.6,2.2
		c-2.2,0-4-0.7-5.3-2.1c-1.3-1.4-2-3.4-2-5.9V84.3h-8.1v18.5c0,4.3,1.1,7.7,3.3,10.1c2.2,2.4,5.1,3.6,8.8,3.6
		C540.9,116.4,543.1,115.8,545,114.6z"/>
	<path class="st0" d="M576.4,78.4c0.5,0,1,0.1,1.4,0.3c0.4,0.2,1,0.5,1.6,0.9c0.9,0.5,1.6,0.9,2.3,1.1c0.6,0.3,1.4,0.4,2.2,0.4
		c1.9,0,3.4-0.6,4.6-1.9c1.2-1.2,2-3.1,2.4-5.6h-4.2c-0.1,0.9-0.4,1.5-0.8,2c-0.4,0.5-1,0.7-1.7,0.7c-0.5,0-1-0.1-1.4-0.3
		c-0.4-0.2-1-0.5-1.7-0.9c-0.8-0.5-1.6-0.9-2.2-1.1c-0.6-0.3-1.3-0.4-2.1-0.4c-3.8,0-6.2,2.5-7,7.6h4.2
		C574.1,79.3,574.9,78.4,576.4,78.4z"/>
	<path class="st0" d="M583.7,83.8c-2.5,0-4.8,0.6-6.7,1.8c-1.9,1.2-3.3,2.9-4.2,5v-6.4h-8.1V116h8.1V99.2c0-2.8,0.7-4.9,2.1-6.4
		c1.4-1.5,3.2-2.2,5.5-2.2c2.3,0,4.1,0.7,5.4,2.1c1.3,1.4,2,3.4,2,5.9V116h8.1V97.6c0-4.4-1.1-7.7-3.3-10.1
		C590.4,85,587.4,83.8,583.7,83.8z"/>
	<path class="st0" d="M625.6,85.8c-2.4-1.3-5.1-1.9-8.3-1.9c-3.1,0-5.9,0.7-8.3,1.9c-2.4,1.3-4.3,3.2-5.7,5.6c-1.3,2.5-2,5.4-2,8.7
		c0,3.3,0.7,6.2,2,8.7c1.3,2.4,3.2,4.3,5.7,5.6c2.4,1.3,5.2,2,8.3,2c2.7,0,5.1-0.5,7.2-1.5c2.2-1,3.9-2.4,5.3-4.1
		c1.4-1.8,2.3-3.7,2.7-6H624c-0.3,1.6-1.1,2.8-2.4,3.7s-2.8,1.4-4.7,1.4c-2.1,0-3.9-0.7-5.3-2c-1.4-1.3-2.2-3.4-2.3-6.2h23.4
		c0.2-1,0.3-1.9,0.3-2.8c0-2.9-0.6-5.5-1.9-7.8C629.8,88.9,628,87.1,625.6,85.8z M624.9,98.1h-15.5c0.2-2.6,1-4.6,2.5-5.9
		c1.5-1.3,3.3-2,5.5-2c2.2,0,4,0.7,5.4,2C624.3,93.6,625,95.5,624.9,98.1z"/>
	<polygon class="st0" points="667.1,84.3 657.4,84.3 646.9,97.4 646.9,75.9 638.8,75.9 638.8,116 646.9,116 646.9,102.1 657.5,116 
		667.4,116 653.6,100.1 	"/>
	<path class="st0" d="M700.3,91.5c-1.4-2.5-3.4-4.3-5.9-5.6c-2.5-1.3-5.3-1.9-8.4-1.9c-3.1,0-5.9,0.7-8.4,1.9
		c-2.5,1.3-4.4,3.2-5.9,5.6s-2.1,5.4-2.1,8.7c0,3.3,0.7,6.2,2.1,8.7s3.4,4.3,5.9,5.6c2.5,1.3,5.3,2,8.4,2c3.1,0,5.9-0.7,8.4-2
		c2.5-1.3,4.4-3.2,5.9-5.6c1.4-2.4,2.1-5.3,2.1-8.7C702.5,96.8,701.7,93.9,700.3,91.5z M691.8,107c-1.6,1.6-3.5,2.4-5.8,2.4
		c-2.3,0-4.2-0.8-5.8-2.4c-1.6-1.6-2.4-3.9-2.4-6.9c0-3,0.8-5.3,2.4-6.9c1.6-1.6,3.5-2.4,5.8-2.4c2.3,0,4.2,0.8,5.8,2.4
		c1.6,1.6,2.4,3.9,2.4,6.9C694.2,103.2,693.4,105.5,691.8,107z"/>
	<path class="st0" d="M501.9,146.6c0,2-0.5,3.6-1.4,4.6c-0.9,1-2.2,1.5-3.9,1.5c-1.7,0-3-0.5-4-1.5c-0.9-1-1.4-2.5-1.4-4.6v-14.8
		h-3.9v14.8c0,3.1,0.8,5.5,2.5,7.2c1.7,1.6,3.9,2.4,6.7,2.4c2.8,0,5-0.8,6.7-2.4c1.7-1.6,2.5-4,2.5-7.2v-14.8h-3.9V146.6z"/>
	<path class="st0" d="M524.7,142.1c-0.5-1.3-1.3-2.4-2.5-3.2c-1.2-0.8-2.6-1.2-4.3-1.2c-1.6,0-3.1,0.4-4.4,1.1
		c-1.3,0.7-2.3,1.8-3,3.2c-0.7,1.4-1.1,3-1.1,4.9c0,1.9,0.4,3.5,1.1,4.9c0.7,1.4,1.7,2.5,3,3.2c1.3,0.7,2.7,1.1,4.4,1.1
		c1.7,0,3.1-0.4,4.3-1.2c1.2-0.8,2-1.9,2.5-3.2v4.2h3.9v-24.1h-3.9V142.1z M523.9,150.1c-0.5,0.9-1.2,1.6-2,2.1
		c-0.9,0.5-1.8,0.7-2.9,0.7c-1.7,0-3.1-0.5-4.1-1.6s-1.5-2.5-1.5-4.4c0-1.8,0.5-3.3,1.5-4.4c1-1.1,2.4-1.6,4.1-1.6
		c1.1,0,2.1,0.2,2.9,0.7c0.9,0.5,1.5,1.2,2,2.1c0.5,0.9,0.7,1.9,0.7,3.1C524.7,148.1,524.4,149.2,523.9,150.1z"/>
	<path class="st0" d="M547.6,142.1c-0.5-1.3-1.3-2.4-2.5-3.2c-1.2-0.8-2.6-1.2-4.3-1.2c-1.6,0-3.1,0.4-4.4,1.1
		c-1.3,0.7-2.3,1.8-3,3.2c-0.7,1.4-1.1,3-1.1,4.9c0,1.9,0.4,3.5,1.1,4.9c0.7,1.4,1.7,2.5,3,3.2c1.3,0.7,2.7,1.1,4.4,1.1
		c1.7,0,3.1-0.4,4.3-1.2c1.2-0.8,2-1.9,2.5-3.2v4.2h3.9v-18h-3.9V142.1z M546.9,150.1c-0.5,0.9-1.2,1.6-2,2.1
		c-0.9,0.5-1.8,0.7-2.9,0.7c-1.7,0-3.1-0.5-4.1-1.6s-1.5-2.5-1.5-4.4c0-1.8,0.5-3.3,1.5-4.4c1-1.1,2.4-1.6,4.1-1.6
		c1.1,0,2.1,0.2,2.9,0.7c0.9,0.5,1.5,1.2,2,2.1c0.5,0.9,0.7,1.9,0.7,3.1C547.6,148.1,547.4,149.2,546.9,150.1z"/>
	<rect x="556.1" y="131.8" class="st0" width="3.9" height="24.1"/>
	<path class="st0" d="M579.1,142.1c-0.5-1.3-1.3-2.4-2.5-3.2c-1.2-0.8-2.6-1.2-4.3-1.2c-1.6,0-3.1,0.4-4.4,1.1
		c-1.3,0.7-2.3,1.8-3,3.2c-0.7,1.4-1.1,3-1.1,4.9c0,1.9,0.4,3.5,1.1,4.9c0.7,1.4,1.7,2.5,3,3.2c1.3,0.7,2.7,1.1,4.4,1.1
		c1.7,0,3.1-0.4,4.3-1.2c1.2-0.8,2-1.9,2.5-3.2v4.2h3.9v-18h-3.9V142.1z M578.3,150.1c-0.5,0.9-1.2,1.6-2,2.1
		c-0.9,0.5-1.8,0.7-2.9,0.7c-1.7,0-3.1-0.5-4.1-1.6s-1.5-2.5-1.5-4.4c0-1.8,0.5-3.3,1.5-4.4c1-1.1,2.4-1.6,4.1-1.6
		c1.1,0,2.1,0.2,2.9,0.7c0.9,0.5,1.5,1.2,2,2.1c0.5,0.9,0.7,1.9,0.7,3.1C579.1,148.1,578.8,149.2,578.3,150.1z"/>
	<path class="st0" d="M100,32c2.7,0,4.9-2.1,4.9-4.8c0-2.6-2.2-4.8-4.9-4.8c-2.7,0-4.9,2.1-4.9,4.8C95.2,29.9,97.3,32,100,32z"/>
	<path class="st0" d="M69.1,47c-21.2,0-36.4,2.6-53.9,9.3l11.2,0.8l-8.4,7.4c16-5.7,33.1-8.4,51.1-8.4c17.6,0,35.1,2.9,51.1,8.5
		l-8.4-7.4l11.2-0.8C104.8,50,87.6,47,69.1,47z M43.6,57.6c-4.2,0.6-7.9-0.7-8.2-2.9c-0.4-2.2,2.7-4.6,6.9-5.2
		c4.2-0.6,7.9,0.7,8.2,2.9C50.8,54.6,47.7,57,43.6,57.6z M68.9,55.8l-9.5-4.3l9.6-4.1l9.4,4.1L68.9,55.8z M101.5,54.7
		c-0.4,2.2-4,3.5-8.2,2.9c-4.2-0.6-7.3-3-6.9-5.2c0.4-2.2,4-3.5,8.2-2.9C98.7,50.1,101.8,52.5,101.5,54.7z"/>
	<rect x="461.4" y="76" class="st0" width="4.1" height="135.8"/>
	<path class="st0" d="M158.5,95.1h9.8l1.8,5h4l-8.6-24.1h-4.3l-8.6,24.1h4L158.5,95.1z M163.4,80l3.9,12.2h-7.7L163.4,80z"/>
	<polygon class="st0" points="189.6,82.1 184.5,95.3 179.1,82.1 174.9,82.1 182.5,99.6 178.6,108.6 182.8,108.6 193.8,82.1 	"/>
	<path class="st0" d="M202.8,100.3c1.5,0,2.9-0.4,4-1.1c1.1-0.7,1.9-1.8,2.4-3.1v3.9h3.8v-18h-3.8v9.5c0,1.8-0.5,3.2-1.4,4.2
		c-0.9,1-2.1,1.4-3.6,1.4c-1.5,0-2.6-0.4-3.4-1.3s-1.3-2.1-1.3-3.8V82.1h-3.8v10.5c0,2.5,0.6,4.4,1.9,5.8
		C199,99.6,200.7,100.3,202.8,100.3z"/>
	<path class="st0" d="M229.7,86.2c0.8,0.9,1.3,2.1,1.3,3.7V100h3.8V89.6c0-2.5-0.6-4.4-1.9-5.8c-1.3-1.3-3-2-5.1-2
		c-1.5,0-2.8,0.4-4,1.1c-1.1,0.7-2,1.8-2.4,3.1v-4h-3.8v18h3.8v-9.6c0-1.8,0.5-3.2,1.4-4.2c0.9-0.9,2.1-1.4,3.6-1.4
		C227.7,84.9,228.9,85.3,229.7,86.2z"/>
	<path class="st0" d="M240.1,94c0,2.2,0.5,3.7,1.5,4.6c1,0.9,2.5,1.4,4.4,1.4h2.3v-3.2h-1.8c-1,0-1.6-0.2-2-0.6
		c-0.4-0.4-0.6-1.1-0.6-2.1v-8.9h4.4v-3.2h-4.4v-6.1h-3.8v6.1h-2.6v3.2h2.6V94z"/>
	<path class="st0" d="M254.9,99.2c1.2,0.7,2.7,1.1,4.2,1.1c1.7,0,3.1-0.4,4.2-1.2c1.2-0.8,2-1.9,2.5-3.2v4.2h3.8v-18h-3.8v4.2
		c-0.5-1.3-1.3-2.4-2.5-3.2c-1.2-0.8-2.6-1.2-4.2-1.2c-1.6,0-3,0.4-4.2,1.1c-1.2,0.7-2.2,1.8-2.9,3.2c-0.7,1.4-1.1,3-1.1,4.9
		c0,1.9,0.4,3.5,1.1,4.9C252.6,97.4,253.6,98.4,254.9,99.2z M256.2,86.7c1-1.1,2.3-1.6,4-1.6c1.1,0,2,0.2,2.8,0.7
		c0.8,0.5,1.5,1.2,2,2.1c0.5,0.9,0.7,1.9,0.7,3.1c0,1.2-0.2,2.2-0.7,3.1c-0.5,0.9-1.1,1.6-2,2.1s-1.8,0.7-2.8,0.7
		c-1.7,0-3-0.5-4-1.6s-1.5-2.5-1.5-4.4C254.7,89.2,255.2,87.7,256.2,86.7z"/>
	<path class="st0" d="M287.1,90V100h3.8v-9.6c0-1.8,0.4-3.1,1.3-4.1c0.9-0.9,2-1.4,3.5-1.4c1.4,0,2.5,0.4,3.3,1.3
		c0.8,0.9,1.2,2.1,1.2,3.6V100h3.8V89.6c0-2.5-0.6-4.4-1.9-5.8c-1.3-1.3-3-2-5.2-2c-1.5,0-2.8,0.4-4,1.1c-1.2,0.8-2,1.8-2.5,3.2
		c-0.5-1.4-1.3-2.5-2.4-3.2c-1.1-0.7-2.4-1.1-3.9-1.1c-1.5,0-2.7,0.3-3.8,1c-1.1,0.7-1.8,1.7-2.3,3v-3.8h-3.8v18h3.8v-9.6
		c0-1.8,0.4-3.1,1.3-4.1c0.9-0.9,2-1.4,3.5-1.4c1.4,0,2.5,0.4,3.3,1.3C286.7,87.2,287.1,88.4,287.1,90z"/>
	<rect x="308.3" y="82.1" class="st0" width="3.8" height="18"/>
	<path class="st0" d="M310.2,79c0.7,0,1.3-0.2,1.8-0.6c0.5-0.4,0.7-0.9,0.7-1.5c0-0.6-0.2-1.2-0.7-1.6c-0.5-0.4-1-0.6-1.8-0.6
		s-1.3,0.2-1.7,0.6s-0.7,0.9-0.7,1.6c0,0.6,0.2,1.1,0.7,1.5C308.9,78.8,309.5,79,310.2,79z"/>
	<path class="st0" d="M329.4,82.9c-1.3-0.7-2.9-1.1-4.7-1.1c-1.8,0-3.3,0.4-4.7,1.1c-1.4,0.7-2.4,1.8-3.2,3.2
		c-0.8,1.4-1.2,3-1.2,4.9c0,1.9,0.4,3.5,1.2,4.9c0.8,1.4,1.8,2.5,3.2,3.2c1.4,0.7,2.9,1.1,4.7,1.1c1.5,0,2.9-0.3,4.1-0.8
		c1.2-0.6,2.2-1.3,3-2.3c0.8-1,1.3-2.1,1.5-3.4h-4c-0.2,1-0.7,1.9-1.6,2.5c-0.9,0.6-1.9,0.9-3.2,0.9c-1.4,0-2.6-0.4-3.6-1.3
		c-1-0.9-1.5-2.3-1.6-4.1h14c0.1-0.5,0.1-1,0.1-1.6c0-1.6-0.4-3-1.1-4.3C331.8,84.7,330.7,83.6,329.4,82.9z M319.5,89.2
		c0.2-1.3,0.7-2.3,1.5-3c1-0.9,2.2-1.3,3.7-1.3c0.9,0,1.8,0.2,2.6,0.6c0.8,0.4,1.4,1,1.8,1.8c0.3,0.6,0.5,1.3,0.5,2H319.5z"/>
	<path class="st0" d="M341,90.5c0-1.8,0.5-3.2,1.4-4.2c0.9-0.9,2.1-1.4,3.6-1.4c1.5,0,2.6,0.4,3.4,1.3s1.3,2.1,1.3,3.7V100h3.8V89.6
		c0-2.5-0.6-4.4-1.9-5.8c-1.3-1.3-3-2-5.1-2c-1.5,0-2.8,0.4-4,1.1c-1.1,0.7-2,1.8-2.4,3.1v-4h-3.8v18h3.8V90.5z"/>
	<path class="st0" d="M364.1,96.2c-0.4-0.4-0.6-1.1-0.6-2.1v-8.9h4.4v-3.2h-4.4v-6.1h-3.8v6.1h-2.6v3.2h2.6V94
		c0,2.2,0.5,3.7,1.5,4.6c1,0.9,2.5,1.4,4.4,1.4h2.3v-3.2h-1.8C365.1,96.8,364.4,96.6,364.1,96.2z"/>
	<path class="st0" d="M375,99.2c1.4,0.7,3,1.1,4.7,1.1s3.3-0.4,4.8-1.1c1.4-0.7,2.5-1.8,3.3-3.2c0.8-1.4,1.2-3,1.2-4.9
		c0-1.9-0.4-3.5-1.2-4.9c-0.8-1.4-1.9-2.5-3.3-3.2c-1.4-0.7-3-1.1-4.8-1.1s-3.3,0.4-4.7,1.1c-1.4,0.7-2.5,1.8-3.3,3.2
		c-0.8,1.4-1.2,3-1.2,4.9c0,1.9,0.4,3.5,1.2,4.9C372.5,97.4,373.6,98.4,375,99.2z M375.1,87.7c0.5-0.9,1.2-1.6,2-2
		c0.8-0.4,1.7-0.7,2.7-0.7c1,0,1.9,0.2,2.7,0.7c0.8,0.4,1.5,1.1,2,2c0.5,0.9,0.7,2,0.7,3.3c0,1.3-0.2,2.4-0.7,3.3
		c-0.5,0.9-1.1,1.6-2,2c-0.8,0.4-1.7,0.7-2.7,0.7c-1,0-1.9-0.2-2.7-0.7c-0.8-0.4-1.5-1.1-2-2c-0.5-0.9-0.7-2-0.7-3.3
		C374.4,89.7,374.6,88.6,375.1,87.7z"/>
	<path class="st0" d="M411.9,99.1c1.2-0.8,2-1.9,2.4-3.2v4.2h3.8V75.9h-3.8v10.4c-0.5-1.3-1.3-2.4-2.4-3.2c-1.2-0.8-2.6-1.2-4.2-1.2
		c-1.6,0-3,0.4-4.2,1.1c-1.2,0.7-2.2,1.8-2.9,3.2c-0.7,1.4-1.1,3-1.1,4.9c0,1.9,0.4,3.5,1.1,4.9c0.7,1.4,1.7,2.5,2.9,3.2
		c1.2,0.7,2.7,1.1,4.2,1.1C409.3,100.3,410.7,99.9,411.9,99.1z M403.3,91c0-1.8,0.5-3.3,1.5-4.4s2.3-1.6,4-1.6c1.1,0,2,0.2,2.8,0.7
		c0.8,0.5,1.5,1.2,2,2.1c0.5,0.9,0.7,1.9,0.7,3.1c0,1.2-0.2,2.2-0.7,3.1c-0.5,0.9-1.1,1.6-2,2.1s-1.8,0.7-2.8,0.7
		c-1.7,0-3-0.5-4-1.6S403.3,92.9,403.3,91z"/>
	<path class="st0" d="M435.4,82.9c-1.3-0.7-2.9-1.1-4.7-1.1c-1.8,0-3.3,0.4-4.7,1.1c-1.4,0.7-2.4,1.8-3.2,3.2
		c-0.8,1.4-1.2,3-1.2,4.9c0,1.9,0.4,3.5,1.2,4.9c0.8,1.4,1.8,2.5,3.2,3.2c1.4,0.7,2.9,1.1,4.7,1.1c1.5,0,2.9-0.3,4.1-0.8
		c1.2-0.6,2.2-1.3,3-2.3c0.8-1,1.3-2.1,1.5-3.4h-4c-0.2,1-0.7,1.9-1.6,2.5c-0.9,0.6-1.9,0.9-3.2,0.9c-1.4,0-2.6-0.4-3.6-1.3
		c-1-0.9-1.5-2.3-1.6-4.1h14c0.1-0.5,0.1-1,0.1-1.6c0-1.6-0.4-3-1.1-4.3C437.8,84.7,436.7,83.6,435.4,82.9z M425.5,89.2
		c0.2-1.3,0.7-2.3,1.5-3c1-0.9,2.2-1.3,3.7-1.3c0.9,0,1.8,0.2,2.6,0.6c0.8,0.4,1.4,1,1.8,1.8c0.3,0.6,0.5,1.3,0.5,2H425.5z"/>
	<path class="st0" d="M127,30.9c-5.6-9.5-9.2,0.1-14-0.9c4.4,2.3,1.5,12.3,11.5,8.5c-10.7,12.5-24.2,1.7-25-6.4
		c-3.3,7.4-21.8,11.9-26.2-2c9.7,8.3,10.2-4,15.9-4.8c-5.7-0.8-6.2-12.9-15.9-4.7c7.9-10.2-3.7-10.5-4.4-16.5
		c-0.8,6-12.4,6.3-4.5,16.5c-9.7-8.3-10.2,3.9-15.9,4.7c5.7,0.8,6.2,13.1,15.9,4.8C59.9,44,42.1,39.4,38.8,32
		c2.5-0.2,4.4-2.2,4.4-4.7c0-2.6-2.2-4.8-4.9-4.8c-2.7,0-4.9,2.1-4.9,4.8s2.2,4.8,4.9,4.8c0.1,0,0.3,0,0.4,0
		c-0.9,8.1-14.7,18.4-25.4,6.6c10,3.8,7.1-6.2,11.6-8.5c-4.8,1-8.4-8.6-14.1,0.9c4-7.8-0.4-9.1-7.4-11.1c1.3,4,2.6,7.9,3.9,11.8
		c0.5-0.2,1.1-0.3,1.8-0.3c2.6,0,4.7,2,4.7,4.5c0,2.2-1.5,4-3.6,4.4c0.8,2.4,1.6,4.8,2.3,7.1c-1.2,0.4-2,1.6-2,2.9
		c0,1.7,1.3,3.1,3,3.1c0.3,0,0.6-0.1,0.9-0.2c0,0,0,0,0,0c17.8-6.8,33.2-9.4,54.7-9.4c18.8,0,36.2,3.1,54.7,9.6c0,0,0,0,0,0
		c0.3,0.1,0.6,0.2,0.9,0.2c1.7,0,3-1.4,3-3.1c0-1.4-0.8-2.5-2-2.9c0.8-2.4,1.6-4.8,2.4-7.3c-2-0.5-3.5-2.3-3.5-4.4
		c0-2.5,2.1-4.5,4.7-4.5c0.6,0,1.1,0.1,1.6,0.3c1.3-3.9,2.5-7.8,3.8-11.7C129,21.6,121.9,21.5,127,30.9z M68.9,28.7
		c-2.6,0-4.7-2-4.7-4.5c0-2.5,2.1-4.5,4.7-4.5s4.7,2,4.7,4.5C73.6,26.6,71.5,28.7,68.9,28.7z"/>
	<path class="st0" d="M44.5,156c1.6-4.4,3.5-0.2,7,0.3c0.2-0.1,1.7-0.5,3-0.8c0,0,0.1,0.1,0.1,0.1c0,0,0.1,0,0.1,0
		c0.7,0.8,1.6,1.4,1.7,1.4c1.8,1.1,4.2,1.9,0.9,6.7c-2.1,3.1-3.2-0.3-5.9,2.8c0,0-2.3-0.2-3,2.1c0.9-0.2,2.3-0.7,3.7-0.1
		c0,0.1,0.1,0.1,0.1,0.2c0.9,0,4.7,0,4.7,0c0.6-1.5,2.3-1.9,3.4-1.7c-0.6-4.4,4.2-2.9,4.2-2.9c-0.9-1.9-0.1-3.7,2-3.8l-1.3-1.9
		c1.6-0.6,3,0.7,3.6,0.7c-0.1-0.2-0.8-1.7,0-2.8c1-1.2,5.1-1.3,7.1-1.3c-0.1,0-0.2,0.1-0.3,0.1c-1.4,2.1-1.8,2.3-1.5,4.2
		c0.4,2.3,2.2,2.2,0.7,4.3c-2.3,3.3-2.7,0.1-6,2.9c-0.3,0-2.3,0-3,2.1c0.9-0.2,2.3-0.7,3.6-0.1l0.1,0.2c2.5,0,3.4,0,4.6,0
		c0.4-0.8,1.3-2.4,3.2-1.6c-0.2-3.3,1.2-3.3,3-3.9c-2.7-3.9,0.8-5.4,2.5-6c0.7,1.4,1.8,2.8,4,3.5c3,0.9,3.2,1.7,2.3,3.4
		c-1.9,3.3-2.8-0.6-6.2,2.4c-0.5,0-2.4,0.1-3.1,2.1c0.9-0.2,2.3-0.7,3.7-0.1l0.1,0.2h5.7c-0.3-2.1,2.2-1.9,3.4-1.7
		c-2.4-4.1,2.3-5.2,0.7-6.5c-2.2-1.8-4.3-1.7-3.7-3.9c0.5-1.9,1.8-3.2,3.2-7.8c9.4-4.1,5-11.7-6.8-15.8c-7.3-2.5-3.1-9.9,7-6.6
		c-0.3,4.8,6.7,2.1,9.4,2.6c-2.6-1.7-4.8-6.8-8.8-4.1c-15.4-4.2-15.6,8.1-8.8,10.3c10,3.3,14.4,8.8,7.4,11.2
		c-1.4,0.5-2.5-1.1-7.1-1.1c-7.6,0-0.9,2-15.4-2c0.9-0.9,2.2-1.5,3.5-1.5c-2-1.7-4.2-1.5-7.4-4.7c0,0,2.8-0.7,3.2-0.9
		c-2.9-0.4-4.9-2.4-6-3.8c0.4-0.1,1.7-0.3,2.3-0.3c-1.9-1-7.5-6.6-11.6-5.6c-5.1,1.3-6,1.9-7.1,5c-2,1.4-2.6,1.3-4.7,3.3
		c-0.6,0.6,0.7,1.5,1.5,2.7c0.6-0.5,2.1-1.7,2.7-1.7c0.6,0,2.1,2.4,2.1,3c0,0.7-1.6,0.9-3.1,1.6c0.5,1.1,0.6,2.5,1.9,2.3
		c2.5-0.4,2.9-2.9,5-2.3c0,2.2-0.8,3.8-1,5.7c1.5-1.3,2.3-1.3,2.3-0.5c0,0.8-0.2,2.4-0.2,4.1c-1.2,0.4-3.2,1-4.2,0.7l-3.3-1.6
		c-1.7-0.4-2.7-0.3-5.7,2c-1,0.8-1,2.1-0.6,2.8c0,0.3-0.1,2.3,1.9,2.8c-0.1-0.8-0.2-1.4,0-2.4c0,0,0,0,0,0
		C42.8,154.2,43.6,151.6,44.5,156z M49.3,133.1l-1.2-1.6l3.8-1L49.3,133.1z"/>
	<path class="st0" d="M70.5,197.2c0-0.9,0.5-1.6,1.3-1.9c-0.7-0.6-1.7-1-2.7-1c-1,0-2,0.4-2.7,1c0.8,0.3,1.3,1.1,1.3,1.9
		c0,1.1-1,2.1-2.1,2.1c-0.1,0-0.2,0-0.3-0.1c0.5,1.6,2,2.8,3.8,2.8c1.8,0,3.3-1.2,3.8-2.8c-0.1,0-0.2,0.1-0.3,0.1
		C71.5,199.2,70.5,198.3,70.5,197.2z"/>
	<path class="st0" d="M17,130.2c0,1.4,0.7,2.6,1.9,3.3c0-1.1,1-2,2.1-2c1.2,0,2.1,0.9,2.1,2c1.1-0.7,1.9-1.9,1.9-3.3
		c0-1.4-0.8-2.6-1.9-3.3c-0.1,1.1-1,2-2.1,2c-1.1,0-2-0.9-2.1-2C17.7,127.6,17,128.8,17,130.2z"/>
	<path class="st0" d="M31.3,171.2c-0.2,0-0.5,0-0.7,0.1c0.2,0.3,0.4,0.7,0.4,1.1c0,1.1-1,2.1-2.1,2.1c-0.5,0-1-0.2-1.3-0.5
		c-0.1,0.4-0.2,0.7-0.2,1.1c0,2.2,1.8,3.9,4,3.9c0.2,0,0.4,0,0.6-0.1c-0.1-0.2-0.2-0.5-0.2-0.7c0-1.1,1-2.1,2.1-2.1
		c0.4,0,0.8,0.1,1.1,0.3c0.2-0.4,0.3-0.9,0.3-1.4C35.3,172.9,33.6,171.2,31.3,171.2z"/>
	<path class="st0" d="M21,89.8c1,0,1.8,0.7,2,1.5c0.6-0.3,1-0.8,1.4-1.3c-1.1,0-2-0.9-2-2.1c0-1.1,0.9-2,2-2.1
		c-0.7-1.1-1.9-1.8-3.4-1.8c-2.2,0-4,1.7-4,3.9c0,1.4,0.8,2.7,2,3.3C19.2,90.5,20,89.8,21,89.8z"/>
	<path class="st0" d="M67.6,88.1c0,1.1-0.9,2-2,2c0,0-0.1,0-0.1,0c0.7,1.1,1.9,1.8,3.4,1.8c1.5,0,2.7-0.8,3.4-1.9
		c-1-0.2-1.7-1-1.7-2c0-1,0.8-1.8,1.7-2c-0.7-1.1-2-1.9-3.4-1.9c-1.5,0-2.9,0.9-3.5,2.1c0.1,0,0.2,0,0.2,0
		C66.7,86.1,67.6,87,67.6,88.1z"/>
	<path class="st0" d="M108.7,175.1c-1.2,0-2.1-0.9-2.1-2.1c0-0.5,0.2-0.9,0.5-1.3c-0.1,0-0.3,0-0.4,0c-2.2,0-4,1.7-4,3.9
		c0,0.4,0.1,0.9,0.2,1.3c0.4-0.4,0.9-0.6,1.5-0.6c1.2,0,2.1,0.9,2.1,2.1c0,0.4-0.1,0.8-0.3,1.1c0.2,0,0.3,0.1,0.5,0.1
		c2.2,0,4-1.7,4-3.9c0-0.5-0.1-0.9-0.3-1.3C110,174.7,109.4,175.1,108.7,175.1z"/>
	<path class="st0" d="M113.9,90c0.3,0.5,0.7,0.9,1.2,1.2c0.3-0.8,1.1-1.4,2-1.4c1,0,1.8,0.7,2,1.6c1.3-0.6,2.2-1.9,2.2-3.4
		c0-2.2-1.8-3.9-4-3.9c-1.4,0-2.7,0.7-3.4,1.8c1.1,0.1,2,0.9,2,2C115.9,89.1,115,90,113.9,90z"/>
	<path class="st0" d="M9.4,147.7c0,21.4,12,37.6,29.7,47.7L69,212.1l30-16.7c17.7-10.1,29.6-26.3,29.6-47.7l0-71.9H9.5L9.4,147.7z
		 M12.7,87.9c0-4.4,3.7-8,8.2-8c3.8,0,6.9,2.5,7.9,5.8h32c1-3.4,4.1-5.8,7.9-5.8c3.8,0,6.9,2.5,7.9,5.8h32.6c1-3.4,4.1-5.8,7.9-5.8
		c4.6,0,8.2,3.6,8.2,8c0,3.7-2.7,6.9-6.3,7.7l0,26.4c3.5,0.9,6,4,6,7.6c0,3.7-2.6,6.7-6,7.6l0,9.1c0,8.4-2.4,16.5-6.6,23.5
		c1.4,1.4,2.3,3.4,2.3,5.6c0,4.4-3.7,8-8.2,8c-1.7,0-3.3-0.5-4.7-1.4c-2.3,1.9-4.9,3.7-7.6,5.2l-17.2,9.4c0.1,0.5,0.1,0.9,0.1,1.4
		c0,4.4-3.7,8-8.3,8c-4.6,0-8.2-3.6-8.2-8c0-0.4,0.1-0.9,0.1-1.3l-17.3-9.4c-2.9-1.6-5.6-3.4-8-5.5c-1.3,0.8-2.7,1.2-4.3,1.2
		c-4.6,0-8.3-3.6-8.3-8c0-2.1,0.8-4,2.2-5.4c-4.2-7-6.5-15-6.5-23.2v-9.1c-3.5-0.9-6-4-6-7.6c0-3.7,2.6-6.7,6-7.6V95.6
		C15.3,94.6,12.7,91.6,12.7,87.9z"/>
	<path class="st0" d="M117.1,128.3c-1,0-1.8-0.7-2-1.6c-1.2,0.7-2,1.9-2,3.4c0,1.4,0.8,2.6,1.9,3.3c0-1.1,1-2.1,2.1-2.1
		c1.1,0,2.1,0.9,2.1,2c1.1-0.7,1.8-1.9,1.8-3.3c0-1.4-0.8-2.6-1.9-3.3C118.8,127.7,118,128.3,117.1,128.3z"/>
	<path class="st0" d="M23.1,122c3.5,0.9,6.1,4,6.1,7.7c0,3.7-2.6,6.8-6.1,7.7v9.1c0,7.4,2.1,14.7,5.9,21c0.8-0.2,1.5-0.4,2.4-0.4
		c4.6,0,8.2,3.6,8.2,8c0,1.3-0.4,2.6-1,3.7c2.2,1.8,4.6,3.5,7.2,4.9l17.1,9.3c1.5-1.7,3.7-2.8,6.2-2.8c2.5,0,4.7,1.1,6.2,2.8l17-9.2
		c2.5-1.4,4.8-3,6.9-4.7c-0.5-1-0.8-2.2-0.8-3.4c0-4.4,3.7-8,8.3-8c0.7,0,1.5,0.1,2.2,0.3c3.9-6.4,6-13.8,6-21.4l0-9.1
		c-3.5-0.9-6.1-4-6.1-7.7c0-3.7,2.6-6.8,6.1-7.7l0-26.5c-2.7-0.8-4.8-2.8-5.5-5.4H76.8c-1,3.4-4.1,5.8-7.9,5.8
		c-3.8,0-6.9-2.5-7.9-5.8h-32c-0.8,2.7-3,4.8-5.8,5.5V122z M33.3,100h71.7l0,48.2c0,12.8-7.2,21.5-17.8,27.5l-18.1,10l-18.1-10
		c-10.6-6-17.8-14.8-17.8-27.5L33.3,100z"/>
</g>
</svg>
