<?xml version="1.0" encoding="utf-8"?>
<!-- Generator: Adobe Illustrator 25.4.1, SVG Export Plug-In . SVG Version: 6.00 Build 0)  -->
<svg version="1.1" id="Capa_1" xmlns="http://www.w3.org/2000/svg" xmlns:xlink="http://www.w3.org/1999/xlink" x="0px" y="0px"
	 viewBox="0 0 48 48" style="enable-background:new 0 0 48 48;" xml:space="preserve">
<style type="text/css">
	.st0{fill:#2D3632;}
</style>
<path class="st0" d="M18,10.8c-4.1,0-7.4,3.3-7.4,7.2v11.6c0,4,3.4,7.2,7.4,7.2h11.9c4.1,0,7.4-3.3,7.4-7.2V18c0-4-3.4-7.2-7.4-7.2
	H18z M18,13.8h11.9c2.5,0,4.5,2,4.5,4.4v11.6c0,2.4-2,4.4-4.5,4.4H18c-2.5,0-4.5-2-4.5-4.4V18.2C13.4,15.7,15.5,13.8,18,13.8z
	 M31.3,15.2c-0.9,0-1.5,0.6-1.5,1.5c0,0.9,0.6,1.5,1.5,1.5c0.9,0,1.5-0.6,1.5-1.5C32.8,15.8,32.2,15.2,31.3,15.2z M23.9,16.7
	c-4.1,0-7.4,3.3-7.4,7.2s3.4,7.2,7.4,7.2c4,0,7.4-3.3,7.4-7.2S28,16.7,23.9,16.7z M23.9,19.5c2.5,0,4.5,2,4.5,4.4s-2,4.4-4.5,4.4
	s-4.5-2-4.5-4.4S21.4,19.5,23.9,19.5z"/>
</svg>
