<?xml version="1.0" encoding="utf-8"?>
<!-- Generator: Adobe Illustrator 25.4.1, SVG Export Plug-In . SVG Version: 6.00 Build 0)  -->
<svg width="220" height="114" version="1.1" id="Capa_1" xmlns="http://www.w3.org/2000/svg" xmlns:xlink="http://www.w3.org/1999/xlink" x="0px" y="0px"
	 viewBox="0 0 220 114" style="enable-background:new 0 0 220 114;" xml:space="preserve">
<style type="text/css">
	.st0{fill:#00CD5F;}
	.st1{fill:#2D3632;}
	.st2{fill:#FEFF00;}
</style>
<g>
	<path class="st0" d="M122.7,59.8l-73.8,4.4C5.6,65.9,1.5,8.6,44.9,5.5c0,0,73.8-4.4,73.8-4.4c18.1-1,33.9,11.4,35,27.6
		C154.8,44.8,140.9,58.8,122.7,59.8"/>
	<g>
		<path class="st1" d="M38.4,47l-1.6-26.5l7.3-0.4l1.6,26.5L38.4,47z"/>
		<path class="st1" d="M63.6,33.4c-0.3-0.3-0.7-0.6-1.3-0.8c-0.6-0.3-1.3-0.4-2-0.3c-1.4,0.1-2.5,0.7-3.3,1.9
			c-0.8,1.2-1.2,2.8-1.1,4.8l0.4,7l-6.9,0.4l-1.2-20L54,26l1,6.1l0.7,0c0.2-2,0.8-3.6,1.7-4.9c0.9-1.3,2.3-1.9,4-2
			c1.1-0.1,2.2,0.2,3.1,0.7L63.6,33.4z"/>
		<path class="st1" d="M85.1,24l1.2,20l-5.8,0.4l-0.7-4.7l-0.8,0c-0.4,1.6-1.1,2.9-2.1,3.9c-1,1.1-2.4,1.7-4.1,1.8
			c-2,0.1-3.5-0.4-4.5-1.4c-1.1-1.1-1.7-2.7-1.8-4.9l-0.9-14l6.9-0.4l0.7,11.8c0.1,1,0.3,1.8,0.8,2.3c0.4,0.5,1,0.8,1.8,0.7
			c1.1-0.1,1.8-0.8,2.3-2.2c0.4-1.4,0.6-3.3,0.4-5.7l-0.4-7.3L85.1,24z"/>
		<path class="st1" d="M109.3,42.7l-6.9,0.4l-0.7-11.7c-0.1-1-0.3-1.8-0.7-2.3c-0.4-0.5-1-0.8-1.8-0.7c-1.1,0.1-1.9,0.8-2.4,2.1
			c-0.5,1.3-0.7,3.2-0.5,5.8l0.4,7.2l-6.9,0.4l-1.2-20l5.8-0.4l0.8,5l0.7,0c0.4-1.8,1.1-3.2,2.2-4.3c1.1-1,2.5-1.6,4.3-1.7
			c3.9-0.2,6,1.9,6.3,6.3L109.3,42.7z M92.9,19.7c-0.1-1.1,0.2-2.1,0.8-3c0.6-0.9,1.5-1.4,2.7-1.4c0.6,0,1,0,1.4,0.2
			c0.4,0.2,0.8,0.4,1.3,0.7c0.3,0.2,0.5,0.3,0.7,0.4c0.2,0.1,0.5,0.2,0.7,0.2c0.4,0,0.6-0.2,0.8-0.5c0.1-0.3,0.2-0.7,0.1-1.3
			l2.2,0.2c0.2,0.6,0.4,1.1,0.4,1.7c0.1,1-0.2,1.9-0.7,2.6c-0.5,0.7-1.4,1.1-2.5,1.2c-0.5,0-0.9,0-1.3-0.2c-0.4-0.2-0.8-0.4-1.2-0.7
			c0,0-0.2-0.1-0.4-0.2c-0.2-0.1-0.4-0.2-0.6-0.3c-0.2-0.1-0.4-0.1-0.5-0.1c-0.5,0-0.8,0.2-1,0.5c-0.2,0.3-0.3,0.7-0.3,1.2l-2.4-0.1
			C93,20.3,92.9,20,92.9,19.7z"/>
		<path class="st1" d="M132,41.3c-0.8,0.4-1.6,0.6-2.5,0.7c-1.3,0.1-2.3-0.2-3-0.8c-0.7-0.6-1.1-1.5-1.2-2.7c0-0.5,0-1.1,0.1-1.5
			l-0.8,0.1c-0.3,1.8-1,3.2-2.1,4.1c-1.1,0.9-2.6,1.5-4.5,1.6c-2,0.1-3.5-0.3-4.7-1.3c-1.2-1-1.8-2.4-1.9-4.2
			c-0.1-2.1,0.6-3.8,2.2-5.1c1.6-1.2,3.9-2,6.7-2.1c1-0.1,2,0,3.1,0l-0.1-1c-0.1-1-0.3-1.8-0.8-2.2c-0.4-0.4-1.1-0.6-1.9-0.6
			c-1.5,0.1-2.4,1.1-2.6,3.1l-6.5-0.6c0.1-1.3,0.5-2.5,1.3-3.6c0.7-1.1,1.8-2,3.2-2.7c1.4-0.7,3-1.1,5-1.2c3-0.2,5.2,0.3,6.7,1.6
			c1.5,1.2,2.3,3.1,2.5,5.5l0.4,6.4c0,0.4,0.1,0.7,0.3,1c0.2,0.2,0.4,0.4,0.7,0.3c0.3,0,0.5-0.1,0.7-0.4l1.3,4.5
			C133.4,40.6,132.8,40.9,132,41.3z M123.5,32.5c-0.5,0-0.9,0-1.2,0c-1.3,0.1-2.3,0.4-3,1c-0.7,0.6-1,1.4-0.9,2.4
			c0,0.7,0.3,1.3,0.6,1.6c0.4,0.4,0.9,0.5,1.4,0.5c1-0.1,1.7-0.5,2.2-1.4C123.2,35.8,123.5,34.4,123.5,32.5z"/>
	</g>
	<path class="st2" d="M177.4,113l-116.9-2.9c-15.5-0.2-28-12.3-27.7-27C33.1,68.4,46,56.6,61.5,56.8l116.9,2.9
		C215.4,60.8,214.4,112.8,177.4,113"/>
	<g>
		<path class="st1" d="M80.7,82.5l-0.2,14.1l-5.8-0.1l-0.4-9.3l-0.5,0c-0.2,2.8-1,5.2-2.3,7.1c-1.4,1.9-3.5,2.8-6.4,2.7
			c-2,0-3.8-0.6-5.4-1.6c-1.6-1-2.8-2.5-3.7-4.6c-0.9-2-1.3-4.6-1.3-7.6c0-3.1,0.7-5.7,1.8-7.8c1.2-2.1,2.8-3.7,4.8-4.7
			c2.1-1,4.4-1.5,7.2-1.5c4,0.1,7,1,9,2.8c2,1.8,3,4.2,3.1,7.2l-6.9,0.7c-0.5-3.4-2.2-5.1-5.2-5.1c-1.9,0-3.4,0.7-4.4,2.1
			c-1,1.4-1.6,3.5-1.6,6.4c0,2.9,0.4,4.9,1.2,6.1c0.9,1.2,2.1,1.8,3.8,1.9c1.2,0,2.2-0.4,3-1.1c0.8-0.8,1.4-1.8,1.7-3L66.9,87
			l0.1-4.7L80.7,82.5z"/>
		<path class="st1" d="M103.8,97c-0.8,0.3-1.7,0.5-2.6,0.5c-1.3,0-2.3-0.4-3-1c-0.7-0.7-1-1.6-1-2.8c0-0.5,0.1-1.1,0.2-1.5l-0.8,0
			c-0.5,1.8-1.3,3.1-2.4,4c-1.1,0.9-2.7,1.3-4.6,1.2c-2,0-3.5-0.6-4.6-1.7c-1.1-1.1-1.6-2.5-1.6-4.3c0-2.1,0.9-3.8,2.6-4.9
			s4-1.7,6.9-1.6c1,0,2,0.1,3.1,0.3l0-1c0-1-0.2-1.8-0.6-2.3c-0.4-0.5-1-0.7-1.8-0.7c-1.5,0-2.5,1-2.8,2.9l-6.4-1.1
			c0.2-1.3,0.7-2.4,1.5-3.4c0.8-1,2-1.8,3.4-2.4c1.4-0.6,3.1-0.9,5-0.8c3,0,5.2,0.7,6.6,2.1c1.4,1.4,2.1,3.3,2,5.7l-0.1,6.4
			c0,0.4,0.1,0.7,0.3,1c0.2,0.3,0.4,0.4,0.7,0.4c0.3,0,0.5-0.1,0.8-0.3l0.9,4.6C105.2,96.3,104.6,96.6,103.8,97z M96,87.5
			c-0.5-0.1-0.9-0.1-1.2-0.1c-1.3,0-2.3,0.2-3.1,0.8c-0.7,0.6-1.1,1.3-1.1,2.3c0,0.7,0.2,1.3,0.5,1.7c0.4,0.4,0.8,0.6,1.4,0.6
			c1,0,1.8-0.4,2.3-1.2C95.5,90.7,95.9,89.4,96,87.5z"/>
		<path class="st1" d="M125.3,92.4l-0.1,4.9l-18.9-0.3l0.1-5.2l4.5-4.9c1.7-1.7,3.7-3.2,6.1-4.4l0-0.8l-9.6-0.1l0.1-4.7l17.7,0.3
			l-0.1,5l-4.1,4.3c-2.2,2.1-4.7,3.8-7.5,5l0,0.8L125.3,92.4z"/>
		<path class="st1" d="M141.3,96.5c-0.7,0.4-1.5,0.8-2.6,1.1c-1,0.3-2.1,0.4-3.3,0.4c-4.4-0.1-6.5-2.2-6.5-6.3l0.2-9.8l-2.5,0
			l0.1-4.7l3.4,0.1l2.8-5.3l3.3,0.1l-0.1,5.4l5.9,0.1l-0.1,4.7l-5.9-0.1l-0.1,8.4c0,0.8,0.2,1.3,0.5,1.7c0.4,0.3,0.9,0.5,1.7,0.5
			c0.7,0,1.4-0.2,2.1-0.5c0.7-0.4,1.2-0.7,1.5-1.1l1,4.3C142.5,95.7,142,96.1,141.3,96.5z"/>
		<path class="st1" d="M157.5,90.3l5.9,1.1c-0.4,2.1-1.4,3.8-3,5c-1.6,1.2-3.8,1.8-6.7,1.8c-3.2,0-5.6-0.9-7.3-2.7
			c-1.7-1.7-2.5-4.4-2.5-7.8c0.1-3.4,1-6.1,2.8-7.9c1.8-1.8,4.3-2.8,7.5-2.8c3.2,0,5.6,1,7.1,3c1.5,1.9,2.3,4.5,2.2,7.6
			c0,0.4,0,1-0.1,1.7l-12.3-0.2c0.1,1.4,0.4,2.4,0.9,3c0.5,0.6,1.2,1,2.2,1c0.9,0,1.6-0.3,2.2-0.8C156.9,91.8,157.3,91.1,157.5,90.3
			z M151.1,86.3l6,0.1c0-1.3-0.2-2.3-0.7-3.2c-0.4-0.8-1.1-1.2-2.1-1.2c-1,0-1.7,0.3-2.3,1C151.6,83.7,151.2,84.8,151.1,86.3z"/>
		<path class="st1" d="M185.5,98.2c-0.8,0.3-1.7,0.5-2.6,0.5c-1.3,0-2.3-0.4-3-1c-0.7-0.7-1-1.6-1-2.8c0-0.5,0.1-1.1,0.2-1.5l-0.8,0
			c-0.5,1.8-1.3,3.1-2.4,4c-1.1,0.9-2.7,1.3-4.6,1.2c-2,0-3.5-0.6-4.6-1.7c-1.1-1.1-1.6-2.5-1.6-4.3c0-2.1,0.9-3.8,2.6-4.9
			c1.7-1.1,4-1.7,6.9-1.6c1,0,2,0.1,3.1,0.3l0-1c0-1-0.2-1.8-0.6-2.3c-0.4-0.5-1-0.7-1.8-0.7c-1.5,0-2.5,1-2.8,2.9l-6.4-1.1
			c0.2-1.3,0.7-2.4,1.5-3.4c0.8-1,2-1.8,3.4-2.4c1.4-0.6,3.1-0.9,5-0.8c3,0,5.2,0.7,6.6,2.1c1.4,1.4,2.1,3.3,2,5.7l-0.1,6.4
			c0,0.4,0.1,0.7,0.3,1s0.4,0.4,0.7,0.4c0.3,0,0.5-0.1,0.8-0.3l0.9,4.6C186.9,97.6,186.3,97.9,185.5,98.2z M177.7,88.8
			c-0.5-0.1-0.9-0.1-1.2-0.1c-1.3,0-2.3,0.2-3.1,0.8c-0.7,0.6-1.1,1.3-1.1,2.3c0,0.7,0.2,1.3,0.5,1.7c0.4,0.4,0.8,0.6,1.4,0.6
			c1,0,1.8-0.4,2.3-1.2C177.2,92,177.5,90.7,177.7,88.8z"/>
	</g>
</g>
</svg>
