<svg width="220" height="114" viewBox="0 0 220 114" fill="none" xmlns="http://www.w3.org/2000/svg">
<path d="M189.999 59.4654L33.3321 68.4175C-8.42636 70.0671 -12.3108 12.4528 29.424 9.31629L186.091 0.359842C194.473 -0.043356 202.687 2.64592 208.947 7.84301C215.207 13.0401 219.008 20.3248 219.523 28.1134C220.038 35.9019 217.226 43.5647 211.697 49.4356C206.169 55.3065 198.371 58.911 189.999 59.4654" fill="#00CD5F"/>
<path d="M38.2811 39.3661C36.8491 40.9849 34.7673 41.8647 32.0358 42.0055L26.3961 42.3266L26.9544 50.8256L19.5452 51.2655L17.8608 26.1073L31.0612 25.3507C36.7671 25.0252 39.7967 27.537 40.15 32.8863C40.3392 35.5843 39.7163 37.7443 38.2811 39.3661ZM31.6573 36.2867C32.2135 35.4494 32.4486 34.4618 32.3244 33.4845C32.2487 32.3892 31.9317 31.6105 31.3781 31.1398C31.0317 30.8907 30.6351 30.7086 30.2117 30.6044C29.7883 30.5001 29.3468 30.4758 28.9131 30.5328L25.6296 30.7175L26.1028 37.6108L29.2775 37.4305C29.7432 37.4263 30.2014 37.3201 30.6148 37.1206C31.0283 36.9212 31.3854 36.634 31.6573 36.2823V36.2867Z" fill="#2D3632"/>
<path d="M63.4276 48.8196C62.6237 49.1977 61.7439 49.4164 60.8443 49.4619C59.4912 49.5381 58.4566 49.2859 57.7406 48.7052C57.3625 48.3726 57.0617 47.9714 56.8566 47.5266C56.6516 47.0817 56.5467 46.6026 56.5483 46.1186C56.5153 45.6284 56.5327 45.1364 56.6004 44.6493L55.7534 44.6977C55.438 46.425 54.7283 47.736 53.6243 48.6304C52.5204 49.5249 50.9811 50.0279 49.0066 50.1393C47.0131 50.2507 45.425 49.8343 44.2422 48.89C43.6403 48.3914 43.1563 47.7821 42.8207 47.1006C42.4852 46.4191 42.3055 45.6803 42.2929 44.9308C42.1916 44.0142 42.3501 43.089 42.7527 42.247C43.1553 41.405 43.7879 40.6757 44.5876 40.1315C46.2498 38.9584 48.543 38.2854 51.4669 38.1123C52.5154 38.0559 53.5668 38.0691 54.6132 38.1519L54.5517 37.1665C54.4855 36.1958 54.2284 35.4964 53.7805 35.0682C53.5312 34.8474 53.2316 34.6817 52.904 34.5835C52.5763 34.4852 52.229 34.4569 51.888 34.5007C50.3424 34.5887 49.4577 35.5785 49.2337 37.4701L42.6099 36.8586C42.6936 35.6426 43.1338 34.4712 43.8826 33.4713C44.7225 32.3878 45.8418 31.518 47.1378 30.9419C48.7246 30.2337 50.4508 29.8354 52.2097 29.7717C55.2566 29.5987 57.5466 30.1031 59.0795 31.285C60.6125 32.4669 61.4562 34.2118 61.6108 36.5199L62.0129 42.5773C62.0182 42.9131 62.1356 43.239 62.3489 43.51C62.4292 43.6144 62.536 43.6988 62.6598 43.7556C62.7836 43.8124 62.9206 43.8398 63.0586 43.8355C63.2053 43.8264 63.3483 43.7883 63.478 43.7238C63.6077 43.6594 63.7212 43.57 63.8108 43.4616L65.1262 47.7066C64.6358 48.1687 64.0606 48.5456 63.4276 48.8196V48.8196ZM54.7315 40.4614C54.1874 40.4614 53.7853 40.4614 53.5487 40.4614C52.1955 40.5362 51.183 40.8617 50.5017 41.438C50.1648 41.7179 49.9036 42.0677 49.7392 42.459C49.5748 42.8504 49.5118 43.2722 49.5554 43.6903C49.5517 44.2621 49.7876 44.8128 50.2131 45.2256C50.4089 45.3957 50.6413 45.5253 50.895 45.6057C51.1486 45.6861 51.4177 45.7154 51.6845 45.6919C52.1537 45.6791 52.6108 45.55 53.0084 45.318C53.406 45.086 53.7297 44.7595 53.9461 44.3722C54.4634 43.5305 54.7252 42.2313 54.7315 40.4746V40.4614Z" fill="#2D3632"/>
<path d="M99.2392 46.7169L92.1422 47.1216L91.3947 35.816C91.2717 33.942 90.4831 33.0476 89.0291 33.1326C87.9503 33.1942 87.1365 33.8804 86.6634 35.187C86.1903 36.4935 86.001 38.3323 86.1571 40.6902L86.6019 47.4383L79.505 47.843L78.7574 36.5375C78.7546 35.8091 78.5064 35.0999 78.0477 34.5095C77.8378 34.2711 77.5661 34.0863 77.2582 33.9724C76.9503 33.8585 76.6163 33.8193 76.2877 33.8584C75.2278 33.92 74.4566 34.5799 73.974 35.838C73.4915 37.0961 73.3337 38.9188 73.5009 41.306L73.974 48.1597L66.8771 48.5644L65.647 29.565L71.5469 29.2263L72.3039 33.942L73.0042 33.9024C73.6792 30.3275 75.7388 28.4403 79.1832 28.2409C80.9748 28.1382 82.3942 28.5151 83.4414 29.3714C84.4886 30.2278 85.0784 31.505 85.2109 33.203L85.949 33.1634C86.5956 29.5855 88.5922 27.7012 91.9388 27.5106C95.9446 27.2819 98.0879 29.2702 98.3686 33.4757L99.2392 46.7169Z" fill="#2D3632"/>
<path d="M123.662 35.618C123.889 39.0229 123.345 41.6169 122.03 43.4C121.428 44.2563 120.614 44.9652 119.655 45.4668C118.696 45.9683 117.622 46.2477 116.522 46.2813C113.053 46.4778 110.687 44.9279 109.426 41.6315L108.579 41.6799L108.763 42.8061C109.284 45.3009 109.636 47.8235 109.818 50.3592L110.031 53.5705L102.934 53.9753L101.184 27.5326L107.084 27.1939L107.803 31.914L108.579 31.8701C109.304 28.2892 111.536 26.3918 115.273 26.1777C117.705 26.0369 119.658 26.7496 121.131 28.3156C122.604 29.8817 123.448 32.3158 123.662 35.618ZM115.183 32.222C114.926 31.8249 114.553 31.5038 114.108 31.2959C113.662 31.088 113.163 31.0018 112.666 31.0474C112.158 31.0701 111.666 31.2252 111.248 31.4952C110.83 31.7651 110.502 32.1389 110.301 32.5739C109.771 33.5329 109.563 34.8482 109.672 36.533C109.78 38.2179 110.168 39.4584 110.831 40.347C111.08 40.7456 111.442 41.073 111.877 41.2933C112.313 41.5136 112.805 41.6184 113.3 41.5963C115.493 41.4732 116.475 39.7136 116.248 36.3175C116.144 34.4391 115.799 33.0666 115.183 32.222V32.222Z" fill="#2D3632"/>
<path d="M135.978 44.6713C134.923 45.0705 133.803 45.3025 132.666 45.3575C130.701 45.469 129.223 45.12 128.232 44.3106C127.242 43.5011 126.677 42.0509 126.539 39.9599L125.181 19.4252L132.278 19.0204L133.555 38.3147C133.548 38.8104 133.731 39.2923 134.071 39.674C134.215 39.8219 134.395 39.9361 134.595 40.0072C134.796 40.0783 135.012 40.1043 135.225 40.0831C135.555 40.0689 135.878 39.9894 136.172 39.8499C136.427 39.7391 136.662 39.5906 136.867 39.41L137.955 43.5935C137.39 44.085 136.715 44.4532 135.978 44.6713V44.6713Z" fill="#2D3632"/>
<path d="M138.4 35.1078C138.166 31.6531 138.955 29.0327 140.765 27.2467C142.576 25.4607 145.114 24.4738 148.378 24.2862C151.602 24.1014 154.237 24.7686 156.284 26.2877C158.331 27.8069 159.465 30.219 159.686 33.5241C159.913 36.929 159.136 39.542 157.353 41.3632C155.571 43.1845 153.023 44.1904 149.708 44.381C146.415 44.5687 143.76 43.8912 141.745 42.3486C139.729 40.806 138.614 38.3924 138.4 35.1078ZM152.395 34.0872C152.278 32.2865 151.92 30.9668 151.321 30.1281C151.025 29.7414 150.628 29.4312 150.168 29.2266C149.707 29.0221 149.198 28.93 148.689 28.9591C148.179 28.9881 147.686 29.1374 147.256 29.3927C146.826 29.648 146.473 30.001 146.23 30.4184C145.748 31.3246 145.566 32.6766 145.686 34.4743C145.703 35.8029 146.068 37.1076 146.751 38.2751C147.027 38.6862 147.418 39.0202 147.882 39.2421C148.346 39.4639 148.866 39.5653 149.386 39.5356C149.907 39.5058 150.41 39.3461 150.841 39.0732C151.272 38.8003 151.616 38.4243 151.837 37.9848C152.319 37.017 152.504 35.7149 152.395 34.0872Z" fill="#2D3632"/>
<path d="M182.983 41.9307L175.886 42.3354L175.157 31.2718C175.157 30.4751 174.893 29.6978 174.4 29.0459C174.175 28.7894 173.883 28.5905 173.552 28.4681C173.22 28.3457 172.861 28.3039 172.508 28.3465C171.375 28.4139 170.562 29.0708 170.066 30.3172C169.571 31.5636 169.403 33.3922 169.56 35.8029L170.033 42.6566L162.936 43.0657L161.683 24.0618L167.583 23.7231L168.373 28.4388L169.04 28.3993C169.323 26.8599 170.123 25.4433 171.325 24.3521C172.523 23.3369 174.072 22.7547 175.692 22.7113C179.676 22.4825 181.806 24.4724 182.084 28.6808L182.983 41.9307Z" fill="#2D3632"/>
<path d="M206.166 40.6638C205.362 41.0405 204.482 41.2577 203.583 41.3016C202.23 41.3808 201.195 41.1301 200.479 40.5494C200.102 40.2161 199.802 39.8149 199.597 39.3701C199.392 38.9254 199.287 38.4466 199.287 37.9628C199.254 37.4726 199.271 36.9806 199.339 36.4935L198.492 36.5419C198.177 38.2721 197.467 39.5816 196.363 40.4702C195.259 41.3588 193.72 41.8618 191.745 41.9791C189.752 42.0935 188.164 41.6785 186.981 40.7341C186.379 40.2356 185.895 39.6263 185.56 38.9448C185.224 38.2633 185.044 37.5244 185.032 36.775C184.93 35.8584 185.089 34.9331 185.492 34.0912C185.894 33.2492 186.527 32.5198 187.326 31.9757C188.989 30.8026 191.282 30.1281 194.206 29.9521C195.256 29.9001 196.309 29.9133 197.357 29.9917L197.29 29.0107C197.224 28.0341 196.969 27.3347 196.524 26.9124C196.274 26.6926 195.974 26.5274 195.647 26.4285C195.32 26.3296 194.973 26.2995 194.631 26.3405C193.086 26.4285 192.203 27.4197 191.982 29.3142L185.358 28.7028C185.443 27.4924 185.883 26.3268 186.631 25.3331C187.474 24.2508 188.595 23.3814 189.891 22.8036C191.476 22.0965 193.201 21.6997 194.958 21.6379C198.005 21.4619 200.295 21.9649 201.828 23.1468C203.361 24.3286 204.205 26.0751 204.359 28.386L204.761 34.4391C204.766 34.775 204.883 35.1012 205.097 35.3717C205.176 35.4773 205.283 35.5626 205.407 35.6195C205.531 35.6765 205.669 35.7032 205.807 35.6972C205.953 35.6881 206.096 35.6505 206.225 35.5868C206.355 35.5232 206.469 35.4349 206.559 35.3277L207.874 39.5728C207.378 40.0265 206.8 40.3958 206.166 40.6638V40.6638ZM197.47 32.3056C196.926 32.3056 196.524 32.3056 196.287 32.3056C194.934 32.3848 193.92 32.7118 193.245 33.2866C192.907 33.5643 192.644 33.9131 192.479 34.304C192.315 34.695 192.253 35.1168 192.299 35.5345C192.297 36.1073 192.532 36.6587 192.957 37.0741C193.153 37.2441 193.387 37.3732 193.641 37.4528C193.896 37.5325 194.166 37.5608 194.433 37.536C194.902 37.5237 195.359 37.3949 195.757 37.1628C196.155 36.9307 196.478 36.6039 196.694 36.2163C197.21 35.3717 197.466 34.074 197.47 32.3188V32.3056Z" fill="#2D3632"/>
<path d="M160.859 113.653L74.6362 108.607C67.4336 108.187 60.7053 105.124 55.9317 100.091C51.1581 95.0591 48.7301 88.4697 49.1818 81.7728C49.6336 75.076 52.928 68.8202 58.3405 64.3818C63.753 59.9435 70.8401 57.6859 78.0427 58.106L164.28 63.1517C199.883 65.8703 196.595 115.1 160.859 113.648" fill="#FEFF00"/>
<path d="M85.5181 86.4974C85.3352 89.172 84.3069 91.241 82.4333 92.7044C80.5597 94.1678 77.7651 94.7925 74.0495 94.5784C70.9268 94.3937 68.4902 93.5666 66.7396 92.0974C65.0121 90.6535 63.8475 88.7184 63.4277 86.5942L68.7078 84.1219C68.9995 85.3887 69.6533 86.5589 70.6003 87.5092C71.0459 87.9754 71.5864 88.355 72.1906 88.626C72.7947 88.8971 73.4506 89.0542 74.1205 89.0884C74.6208 89.1517 75.1298 89.1213 75.6173 88.9989C76.1048 88.8765 76.5611 88.6646 76.9592 88.3758C77.6342 87.8303 78.0127 86.9857 78.0948 85.8419L78.8896 74.0965L68.4855 73.5026L68.8261 68.4701L86.6725 69.5127L85.5181 86.4974Z" fill="#2D3632"/>
<path d="M88.6364 85.5076C88.873 82.0529 90.0054 79.544 92.0335 77.9808C94.0617 76.4177 96.7127 75.73 99.9868 75.9177C103.204 76.1054 105.727 77.0717 107.557 78.8167C109.386 80.5616 110.191 83.0852 109.97 86.3874C109.736 89.7923 108.617 92.2968 106.611 93.901C104.605 95.5052 101.941 96.209 98.6194 96.0125C95.3264 95.819 92.7826 94.8409 90.9879 93.0784C89.1932 91.3158 88.4093 88.7922 88.6364 85.5076ZM102.665 86.1059C102.788 84.3081 102.608 82.9562 102.125 82.05C101.883 81.632 101.531 81.2783 101.101 81.0221C100.672 80.766 100.179 80.6159 99.6692 80.5859C99.1598 80.556 98.6506 80.6472 98.1896 80.8511C97.7286 81.0549 97.331 81.3645 97.0345 81.7508C96.4383 82.5954 96.0882 83.9152 95.9558 85.71C95.7954 87.0313 95.9837 88.3691 96.5046 89.6075C96.7248 90.0472 97.0685 90.4236 97.4994 90.697C97.9304 90.9703 98.4327 91.1305 98.9534 91.1607C99.4741 91.1908 99.9939 91.0899 100.458 90.8684C100.922 90.6469 101.313 90.3132 101.591 89.9023C102.276 88.7369 102.644 87.4337 102.665 86.1059V86.1059Z" fill="#2D3632"/>
<path d="M134.019 78.4604L125.54 97.0375L117.1 96.5448L111.266 77.1274L118.898 77.5673L120.568 86.2687C120.757 87.1485 120.918 88.1251 121.041 89.2424C121.164 90.3598 121.263 91.3364 121.306 92.1678L122.158 92.2206C122.29 91.3408 122.493 90.3422 122.763 89.2688C122.997 88.3146 123.283 87.372 123.62 86.4446L126.487 78.0117L134.019 78.4604Z" fill="#2D3632"/>
<path d="M147.692 91.3056L153.601 92.6033C153.168 94.478 151.984 96.1293 150.29 97.2223C148.58 98.3308 146.277 98.8015 143.382 98.6344C140.161 98.4467 137.722 97.4862 136.063 95.753C134.403 94.0198 133.684 91.5123 133.905 88.2306C134.129 84.9695 135.214 82.5119 137.16 80.8578C139.106 79.2038 141.682 78.4325 144.886 78.5439C148.132 78.7375 150.498 79.7859 151.983 81.6893C153.469 83.5926 154.1 86.0282 153.876 88.9961C153.854 89.3627 153.792 89.9081 153.691 90.6325L141.191 89.9023C141.226 91.1956 141.475 92.156 141.939 92.7836C142.188 93.1016 142.515 93.36 142.892 93.5375C143.27 93.7149 143.687 93.8064 144.11 93.8042C144.513 93.8447 144.921 93.8075 145.308 93.6947C145.695 93.5819 146.052 93.396 146.358 93.1488C146.96 92.6466 147.418 92.0132 147.692 91.3056V91.3056ZM141.347 87.1617L147.498 87.5224C147.589 86.4936 147.41 85.4597 146.978 84.509C146.801 84.1328 146.51 83.8122 146.142 83.5859C145.773 83.3595 145.342 83.2371 144.901 83.2333C144.461 83.1846 144.016 83.2369 143.603 83.3857C143.191 83.5345 142.824 83.7752 142.535 84.0867C141.964 84.7114 141.568 85.7364 141.347 87.1617Z" fill="#2D3632"/>
<path d="M175.834 99.9804L168.737 99.5669L169.484 88.5165C169.584 87.7241 169.419 86.9224 169.011 86.2202C168.823 85.9417 168.562 85.7121 168.253 85.5528C167.943 85.3936 167.596 85.3099 167.242 85.3096C166.113 85.2451 165.217 85.8038 164.555 86.9857C163.892 88.1675 163.48 89.9624 163.32 92.3701L162.846 99.2238L155.75 98.8103L157.036 79.8108L162.936 80.1539L163.092 84.9225L163.755 84.9621C164.244 83.4675 165.227 82.1543 166.565 81.2097C167.892 80.3422 169.507 79.9428 171.122 80.0836C175.102 80.3182 176.95 82.5382 176.667 86.7437L175.834 99.9804Z" fill="#2D3632"/>
</svg>
