<?xml version="1.0" encoding="utf-8"?>
<!-- Generator: Adobe Illustrator 25.4.1, SVG Export Plug-In . SVG Version: 6.00 Build 0)  -->
<svg version="1.1" id="Capa_1" xmlns="http://www.w3.org/2000/svg" xmlns:xlink="http://www.w3.org/1999/xlink" x="0px" y="0px"
	 viewBox="0 0 104 110" style="enable-background:new 0 0 104 110;" xml:space="preserve">
<style type="text/css">
	.st0{fill:#FEFF00;}
</style>
<path class="st0" d="M64.6,96.1c-1.7,0-3.4-0.6-4.6-1.8C58.7,93.1,58,91.6,58,90V38.9c0-1.6,0.7-3.2,1.9-4.3
	c1.2-1.1,2.9-1.8,4.6-1.8h72.8c1.7,0,3.4,0.6,4.6,1.8c1.2,1.1,1.9,2.7,1.9,4.3v51.1c0,1.6-0.7,3.2-1.9,4.3c-1.2,1.1-2.9,1.8-4.6,1.8
	L64.6,96.1z M101,65.1L63.1,41.7v48.2c0,0.2,0,0.4,0.1,0.5c0.1,0.2,0.2,0.3,0.3,0.5c0.1,0.1,0.3,0.2,0.5,0.3
	c0.2,0.1,0.4,0.1,0.6,0.1h72.8c0.2,0,0.4,0,0.6-0.1c0.2-0.1,0.4-0.2,0.5-0.3s0.2-0.3,0.3-0.5c0.1-0.2,0.1-0.4,0.1-0.5V41.7L101,65.1
	z M101,60l36.9-22.5H64.2L101,60z M63.1,41.7v48.2c0,0.2,0,0.4,0.1,0.5c0.1,0.2,0.2,0.3,0.3,0.5c0.1,0.1,0.3,0.2,0.5,0.3
	c0.2,0.1,0.4,0.1,0.6,0.1h-1.5V41.7z"/>
<path class="st0" d="M50.7,52.1c-2.1-1.2-4.2-2.4-6.2-3.7c-4.2-2.8-8-6-11.5-9.5c-2.1-2-4.3-3.9-6.4-5.9c-3.6-3.4-6.6-7.2-8.5-11.6
	c-0.1-0.1-0.2-0.3-0.3-0.4c-0.4,0.5-0.7,0.9-1.1,1.3c-1.6,1.6-3.5,3-5.6,3.9c-0.5,0.2-0.9,0.3-1.4,0.3c-0.2,0-0.4,0-0.6-0.1
	c-0.2-0.1-0.4-0.2-0.5-0.3c-0.1-0.2-0.1-0.4,0-0.5c0-0.2,0.1-0.3,0.2-0.5C9.7,24,10.7,23,11.6,22c0.3-0.3,0.6-0.6,0.7-0.9
	c-1,0.2-1.9,0.3-2.9,0.5c-0.9,0.1-1.7,0.3-2.6,0.4C6,22.1,5.7,21.7,6.1,21c0.5-0.8,1.1-1.5,1.9-2c1.5-0.7,3.1-1.4,4.7-2
	c-0.5-0.7-1-1.5-1.5-2.4c-0.9-1.5-1.5-3.2-1.7-5C9.4,8.4,10,7.4,11.6,6.8c1.4-0.6,2.1-0.5,3.1,0.6c1.5,1.6,3,3.3,4.5,5.1
	c0.3-1,0.7-2,1.1-3c1-2.1,2.1-4.1,3.2-6.2C24.2,2,25.5,1.4,27,1c0.9-0.3,1.3,0.1,1.2,1c-0.9,4.5-1.8,9-3.5,13.2
	c-0.3,0.7-1.2,1.3-1.9,2.1c0.5,0.7,1,1.5,1.6,2.4c3.5,5.1,7.1,10,11.5,14.4c2,2,4.5,3.7,6.8,5.4c2.7,2.1,5.5,4.1,8.2,6.1
	c0.3,0.2,0.5,0.4,0.6,0.7c0.1,0.3,0.2,0.6,0.1,0.9c-0.2,1.6-0.3,3.1-0.5,4.7L50.7,52.1z"/>
<path class="st0" d="M148.5,59.2c-0.5-2.2-0.9-4.1-1.3-6.1c0-0.3,0.2-0.7,0.4-0.9c7-9.4,12.4-19.8,16.1-30.8c0.4-1.1,0-1.8-1-2.5
	c-1.8-1.2-3.5-2.5-5.3-3.8c-0.8-0.6-0.8-1.4-0.3-2.2c0.3-0.6,0.7-1.1,1.3-1.5c0.5-0.4,1.1-0.7,1.8-0.9c-0.5-1.3-1-2.7-1.5-4
	c-0.3-0.9-0.2-2,0.2-2.9c0.4-0.9,1.2-1.6,2.1-2c0.9-0.4,1.4-0.3,1.8,0.6c1.6,2.9,3.2,5.9,4.8,8.9c0.4-0.9,0.8-2,1.2-3
	c0.5-1.5,1.8-2.5,3.2-3.2c0.2-0.1,0.4-0.1,0.6-0.2s0.4,0,0.6,0.1c0.1,0.1,0.2,0.3,0.2,0.5c0,0.2,0,0.4,0,0.5
	c-0.4,1.7-0.9,3.4-1.4,5.1c-0.1,0.3-0.2,0.7-0.4,1.2c0.5-0.3,0.7-0.5,1-0.6c1.9-0.9,3.8-1.9,5.7-2.8c0.4-0.1,0.8-0.1,1.2-0.1
	c0,0.4,0.2,0.9,0,1.2c-0.5,0.9-1,1.9-1.9,2.5c-2.1,1.6-4.4,3-6.4,4.6c-0.8,0.7-1.3,1.6-1.4,2.5c-0.7,6.9-3.3,13.2-7.1,19.1
	c-0.4,0.8-0.8,1.5-1.1,2.4c-2.9,6.6-7.1,12.5-12.5,17.6C149,58.8,148.9,58.9,148.5,59.2z"/>
<path class="st0" d="M50.5,89.5c-0.1,1.8-0.1,3.5-0.2,5.2c0,0.1-0.1,0.2-0.1,0.3C50.1,95,50,95.1,50,95.1c-3.2,0.7-5.5,2.7-8.2,4.3
	c-4.6,2.8-9.2,5.7-14.2,8c-2.1,0.9-4.2,1.8-6.6,1.9s-3.5-0.9-3.7-3c-0.1-1.1-0.2-2.2-0.3-3.3c-0.1-0.7-0.3-1.4-0.6-2
	c-0.4-0.6-0.9-1.2-1.5-1.6c-1-0.7-2.1-1.4-3.2-2.1c-3-2-4.4-5.5-3.6-8.6c0.9-3,3.7-4.4,6.8-3.2c4.6,1.7,6.9,5.2,7.9,9.5
	c0.5,2.2,0.9,4.4,1.3,6.7c0.1,0.4,0.2,0.7,0.4,1.1c1.8-0.8,3.5-1.6,5.3-2.3c5-1.9,9-5.3,12.7-8.7C44.9,89.7,47.4,89,50.5,89.5z"/>
<path class="st0" d="M147.8,90.1c0.2-1.8,0.4-3.6,0.6-5.6c2.2,0.5,4.5,0.2,6.6,1.3c0.9,0.5,1.6,1.2,2.3,1.9c2.5,2.7,4.8,5.6,7.4,8.2
	c1.4,1.4,3.3,2.4,5,3.6c1.4,1,2.9,1.9,4.4,2.9c0.2-0.3,0.4-0.7,0.6-1c0.7-1.9,1.5-3.8,2.2-5.7c1.4-3.8,3.8-6.9,7.8-8.6
	c1.5-0.7,3.1-0.9,4.8-0.7c2.5,0.5,4,2.8,3.7,5.5c-0.3,3.2-2.2,5.4-5.2,6.9c-0.9,0.5-1.9,0.9-2.9,1.3c-0.9,0.4-1.7,0.9-2.4,1.6
	s-1.1,1.6-1.2,2.5c-0.2,0.9-0.5,1.8-0.7,2.7c-0.5,2.1-1.9,3-4.2,2.6c-2.3-0.4-4.2-1.5-6-2.7c-5-3.2-9.4-7.1-13.8-10.9
	c-1.1-1-2.2-2-3.4-3c-1.4-1.3-3.2-2.2-5.2-2.6C148.1,90.2,147.9,90.2,147.8,90.1z"/>
</svg>
