<?xml version="1.0" encoding="utf-8"?>
<!-- Generator: Adobe Illustrator 25.4.1, SVG Export Plug-In . SVG Version: 6.00 Build 0)  -->
<svg version="1.1" id="Capa_1" xmlns="http://www.w3.org/2000/svg" xmlns:xlink="http://www.w3.org/1999/xlink" x="0px" y="0px"
	 viewBox="0 0 500 500" style="enable-background:new 0 0 500 500;" xml:space="preserve">
<style type="text/css">
	.st0{fill:#CE8C2A;}
	.st1{fill:#48773E;}
	.st2{fill:#E01483;}
	.st3{fill:#007DBB;}
	.st4{fill:#F26D25;}
	.st5{fill:#D29F29;}
	.st6{fill:#F89C26;}
	.st7{fill:#5DBA46;}
	.st8{fill:#FCB613;}
	.st9{fill:#183668;}
	.st10{fill:#8E1838;}
	.st11{fill:#279A48;}
	.st12{fill:#C21F33;}
	.st13{fill:#EA1C2D;}
	.st14{fill:#EE402B;}
	.st15{fill:#02558A;}
	.st16{fill:#00ADD8;}
</style>
<g>
	<path class="st0" d="M52.7,390.4c-1-0.2-1.2-0.9-1.6-1.4c-13.8-19.6-24.3-40.8-31.9-63.5c-0.8-2.5,0.7-2.5,2.3-3
		c28.8-8.3,57.6-16.5,86.4-24.8c3.5-1,7-1.9,10.4-3c1.6-0.5,2.5-0.4,3.1,1.3c3.6,10.3,8.4,19.9,14.5,28.9c1.4,2.1-0.3,2.6-1.3,3.4
		c-10.2,7.8-20.5,15.6-30.7,23.4c-16.3,12.4-32.5,24.7-48.8,37C54.2,389.3,53.4,389.9,52.7,390.4z"/>
	<path class="st1" d="M7.7,250.2c0-4.6,0-9.2,0-13.9c0-1.7,0.5-2.3,2.3-2.1c23,2.1,46,4.2,69.1,6.3c10.7,1,21.3,2,32,2.8
		c1.9,0.2,2.4,0.7,2.3,2.6c-0.4,10.4,0.4,20.7,2.6,30.9c0.5,2.1-0.2,2.9-2.3,3.5c-32.2,9.1-64.3,18.4-96.5,27.7
		c-2.4,0.7-3,0.1-3.6-2.1C9.6,288.2,7.4,269,7.7,250.2z"/>
	<path class="st2" d="M218.8,384.6c-2,10.7-4,21.3-6,32c-4.2,22.4-8.4,44.7-12.6,67.1c-0.5,2.4-0.8,3.9-4.1,3.1
		c-22.4-5.4-43.7-13.4-63.9-24.5c-2.2-1.2-2.5-2-1.1-4.2c17.6-28.2,35.1-56.5,52.5-84.9c1.3-2.2,2.2-2.6,4.6-1.3
		c8.9,4.7,18.3,8.1,28,10.7C217.3,382.7,219.3,382.4,218.8,384.6z"/>
	<path class="st3" d="M9.6,216.9c3.4-23.8,9.9-46.1,19.6-67.5c1-2.2,1.9-2,3.7-1.1c26.5,13.3,53,26.5,79.6,39.7
		c3.4,1.7,6.8,3.5,10.3,5.1c1.9,0.8,2.5,1.6,1.5,3.7c-4.2,9.4-7.1,19.2-8.7,29.4c-0.3,1.9-1.1,2.3-2.9,2.2
		c-31.1-2.9-62.2-5.7-93.4-8.5c-2.5-0.2-4.9-0.6-7.4-0.6C9.6,219.2,8.9,218.4,9.6,216.9z"/>
	<path class="st4" d="M261.7,492.4c-17.5,0.4-31.2-0.1-44.9-2c-2.2-0.3-2.5-0.9-2.1-3c6.3-33,12.5-66,18.6-99c0.3-1.8,0.8-2.8,3-2.5
		c10.2,1.2,20.5,1,30.7-0.3c2.3-0.3,2.8,0.3,3.2,2.4c5.1,27.1,10.2,54.3,15.3,81.4c1,5.5,1.9,11.1,3.2,16.6c0.7,2.9-0.3,3.7-2.9,4.1
		C276.7,491.2,267.4,492.3,261.7,492.4z"/>
	<path class="st5" d="M407.9,66.6c-0.7,0.9-1.5,1.8-2.3,2.7c-16.1,17.5-32.2,35.1-48.2,52.6c-6.2,6.8-12.5,13.6-18.7,20.5
		c-1.6,1.8-2.5,1.7-4.3,0.3c-7.7-6.3-16.1-11.5-25.1-15.8c-2.1-1-2.5-1.8-1.6-4c9.8-25.2,19.5-50.4,29.2-75.6
		c2.4-6.2,4.8-12.4,7.1-18.6c0.6-1.6,1.3-2,2.9-1.2c21.8,9.6,41.9,22,60,37.5C408,66.1,408,66.1,407.9,66.6z"/>
	<path class="st6" d="M116.3,452.5c-0.7-0.4-1.1-0.7-1.6-1.1c-19.4-13.1-36.6-28.6-51.6-46.6c-1.5-1.8-1.1-2.6,0.6-3.9
		c26.7-20.2,53.4-40.5,80-60.8c1.6-1.2,2.5-1.3,3.8,0.3c6.8,7.9,14.5,14.9,23.1,20.8c2.1,1.5,1.1,2.4,0.3,3.8
		c-14.4,23.3-28.8,46.6-43.2,69.9c-3.3,5.3-6.5,10.6-9.8,15.8C117.6,451.4,117.2,452.3,116.3,452.5z"/>
	<path class="st7" d="M153.7,152.9c-0.6,0.7-1.1,1.3-1.6,1.8c-7.1,7.3-13.4,15.3-18.6,24c-1.2,1.9-2.1,1.9-4,1
		c-29.9-15-59.9-29.9-89.9-44.7c-2.2-1.1-2.4-1.9-1.2-4C50,110.8,64,92.5,80.7,76.3c1.6-1.5,2.3-1.3,3.6,0.2
		c22.6,24.9,45.3,49.7,67.9,74.5C152.7,151.6,153.2,152.2,153.7,152.9z"/>
	<path class="st8" d="M386,450.8c-1.1-0.4-1.4-1.3-1.8-2.1c-14.2-23-28.5-46-42.7-69.1c-3.4-5.6-6.8-11.2-10.4-16.7
		c-1.1-1.6-1.1-2.5,0.7-3.8c8.2-5.9,15.4-12.9,21.9-20.6c1.8-2.1,2.8-1.7,4.6-0.3c19.6,14.9,39.2,29.6,58.9,44.5
		c7,5.3,14,10.6,21.1,15.9c1.6,1.2,1.9,1.9,0.5,3.6c-14.8,18.1-31.7,33.9-50.9,47.2C387.2,450,386.5,450.4,386,450.8z"/>
	<path class="st9" d="M243.5,60.5c0,16.5-0.1,33,0.1,49.5c0,2.6-0.5,3.8-3.4,3.9c-10,0.4-19.7,2.3-29.2,5.3c-2,0.6-2.5-0.1-3.1-1.7
		c-12.2-31.5-24.4-63-36.7-94.4c-0.7-1.9-0.1-2.5,1.6-3C194.6,12.7,217,8.6,240,7.5c2.8-0.1,3.5,0.7,3.5,3.5
		C243.4,27.5,243.5,44,243.5,60.5z"/>
	<path class="st10" d="M305.6,486.2c-1.8,0.5-1.6-1-1.8-2c-2-10.4-4-20.8-5.9-31.2c-4.2-22.4-8.4-44.7-12.7-67.1
		c-0.5-2.7-0.1-3.9,2.8-4.6c9.4-2.5,18.3-6.2,26.8-11c1.9-1.1,2.8-0.7,3.9,1.1c17.5,28.5,35.1,57,52.8,85.5c0.9,1.5,1.5,2.4-0.6,3.6
		c-20.2,11.6-41.6,20-64.1,25.6C306.3,486.1,306,486.1,305.6,486.2z"/>
	<path class="st11" d="M369.6,182.4c-1.2,0.2-1.4-0.8-1.8-1.4c-5.3-9-11.4-17.3-18.7-24.8c-1.6-1.6-0.6-2.4,0.4-3.5
		c15.1-16.5,30.2-32.9,45.3-49.4c7.6-8.3,15.3-16.6,22.8-25c1.5-1.7,2.2-1.4,3.6,0c16.3,16.3,30,34.6,41.3,54.7
		c1.2,2.2,0.7,2.9-1.3,3.9c-30,14.9-59.9,29.8-89.9,44.7C370.7,181.9,370.1,182.2,369.6,182.4z"/>
	<path class="st12" d="M490.5,218.1c0.5,1.6-0.6,2.1-2.4,2.2c-17.3,1.6-34.6,3.2-51.9,4.8c-15.8,1.5-31.7,2.9-47.5,4.6
		c-3,0.3-3.8-0.5-4.2-3.3c-1.5-9.5-4.1-18.7-7.9-27.5c-0.8-1.9-0.7-2.8,1.4-3.8c30.1-14.9,60.1-29.9,90.1-45
		c1.3-0.7,2.4-1.5,3.3,0.7C480.9,172.2,487.3,194.4,490.5,218.1z"/>
	<path class="st13" d="M263.2,7.7c22.3,1.3,43.7,5.4,64.6,12.4c2.4,0.8,2.8,1.6,1.9,4c-12,31.1-24,62.2-35.9,93.4
		c-0.8,2-1.4,2.8-3.8,2c-9.3-3-18.8-4.9-28.5-5.5c-2.1-0.1-2.9-0.7-2.9-3c0.1-33.6,0.1-67.1,0-100.7C258.6,5.5,261.9,8.6,263.2,7.7z
		"/>
	<path class="st14" d="M492.3,251.2c0.3,18.2-2,36.2-6,54c-0.5,2.4-1.1,3.3-3.9,2.5c-32-9.3-64-18.5-96.1-27.6
		c-2.2-0.6-2.9-1.4-2.4-3.7c2-9.4,2.9-18.9,2.6-28.6c-0.1-2.3,0.6-3,2.9-3.2c30-2.8,59.9-5.7,89.9-8.5c3.4-0.3,6.8-0.5,10.1-0.9
		c2-0.2,2.9,0.2,2.8,2.4C492.2,242.2,492.3,246.7,492.3,251.2z"/>
	<path class="st15" d="M194.3,124.3c0.2,1.2-0.8,1.3-1.5,1.6c-9.3,4.3-18.1,9.6-26.2,16c-1.7,1.4-2.3,0.1-3.2-0.8
		c-11.8-12.9-23.6-25.8-35.4-38.7c-10.8-11.8-21.5-23.7-32.4-35.5c-1.6-1.7-1.7-2.6,0.2-4.1c17.7-14.5,37.1-26.4,58.1-35.5
		c2-0.9,2.7-0.4,3.4,1.4c12.1,31.4,24.3,62.8,36.4,94.2C194,123.3,194.2,123.8,194.3,124.3z"/>
	<path class="st16" d="M481,324.1c-0.2,0.6-0.4,1.2-0.6,1.8c-7,21.2-16.8,41.1-29.2,59.6c-1.3,1.9-2.1,2.6-4.3,0.9
		c-26.5-20.1-53.1-40.2-79.7-60.2c-2.1-1.6-2.3-2.6-0.9-4.8c5.1-7.9,9.1-16.3,12.2-25.2c0.8-2.3,1.8-2.5,3.9-1.9
		c32.1,9.3,64.3,18.5,96.5,27.8C479.6,322.5,481.3,322.2,481,324.1z"/>
</g>
</svg>
