<?xml version="1.0" encoding="utf-8"?>
<!-- Generator: Adobe Illustrator 25.4.1, SVG Export Plug-In . SVG Version: 6.00 Build 0)  -->
<svg version="1.1" id="Capa_1" xmlns="http://www.w3.org/2000/svg" xmlns:xlink="http://www.w3.org/1999/xlink" x="0px" y="0px"
	 viewBox="0 0 49 48" style="enable-background:new 0 0 49 48;" xml:space="preserve">
<style type="text/css">
	.st0{fill:#2D3632;}
</style>
<path class="st0" d="M39.1,15.2c-0.8,1.1-1.7,2.1-2.8,2.9c0,0.2,0,0.5,0,0.7c0,3.1-0.9,6.1-2.7,8.7c-0.9,1.3-2,2.6-3.2,3.6
	c-1.3,1.1-2.9,1.9-4.5,2.5c-1.8,0.6-3.7,0.9-5.7,0.9c-3.1,0-6.1-0.8-8.7-2.5c0.4,0,0.9,0.1,1.4,0.1c2.6,0,5.1-0.8,7.1-2.4
	c-1.2,0-2.3-0.4-3.3-1.1c-0.9-0.7-1.6-1.6-2-2.7c0.9,0.2,1.7,0.1,2.6-0.1c-1.3-0.2-2.4-0.9-3.3-1.9c-0.9-1-1.3-2.2-1.3-3.5v-0.1
	c0.8,0.4,1.7,0.7,2.6,0.7c-0.8-0.5-1.4-1.2-1.8-2c-0.5-0.8-0.7-1.7-0.7-2.6c0-1,0.3-1.9,0.8-2.8c1.4,1.7,3.2,3.1,5.2,4.1
	c2,1,4.2,1.6,6.5,1.7c-0.1-0.4-0.2-0.8-0.1-1.3c0-0.7,0.1-1.5,0.4-2.1c0.3-0.7,0.7-1.3,1.2-1.8c0.5-0.5,1.2-0.9,1.9-1.2
	c0.7-0.3,1.5-0.4,2.2-0.4c0.8,0,1.5,0.2,2.2,0.5c0.7,0.3,1.3,0.7,1.8,1.3c1.3-0.2,2.5-0.7,3.6-1.3c-0.4,1.3-1.3,2.4-2.5,3.1
	C37,16,38.1,15.7,39.1,15.2z"/>
</svg>
